<?xml version="1.0" standalone="no"?>
<!DOCTYPE svg PUBLIC "-//W3C//DTD SVG 20010904//EN"
 "http://www.w3.org/TR/2001/REC-SVG-20010904/DTD/svg10.dtd">
<svg version="1.0" xmlns="http://www.w3.org/2000/svg"
 width="316.000000pt" height="316.000000pt" viewBox="0 0 316.000000 316.000000"
 preserveAspectRatio="xMidYMid meet">
<metadata>
Created by potrace 1.11, written by Peter Selinger 2001-2013
</metadata>
<g transform="translate(0.000000,316.000000) scale(0.100000,-0.100000)"
fill="#000000" stroke="none">
<path d="M89 2958 c-7 -25 -12 -119 -13 -218 l-1 -175 -34 -47 c-33 -47 -33
-47 -26 -130 6 -73 16 -138 29 -188 3 -8 5 -19 5 -23 1 -5 5 -6 10 -3 5 4 7
-3 4 -13 -6 -24 15 -64 29 -55 7 4 8 3 4 -4 -3 -6 7 -34 24 -61 30 -48 31 -53
21 -103 -20 -95 -21 -102 -29 -158 -9 -71 -9 -412 0 -515 8 -80 35 -298 44
-345 2 -14 7 -45 10 -69 3 -25 7 -48 9 -52 3 -4 7 -23 11 -43 11 -70 48 -168
116 -306 53 -108 93 -167 162 -240 l47 -50 946 0 945 0 19 23 c36 43 147 213
187 287 45 83 133 281 193 435 49 124 76 221 86 305 13 113 7 462 -10 554 -1
6 6 10 16 8 20 -3 32 22 41 88 4 25 11 63 17 85 6 22 12 52 13 67 0 14 4 24 9
21 4 -2 7 2 8 9 1 21 6 45 19 82 6 20 8 41 4 47 -4 7 -3 9 3 6 12 -7 38 107
28 124 -5 8 -4 10 3 5 8 -5 12 0 12 13 0 27 0 25 10 61 5 17 12 54 15 83 4 28
14 75 23 102 9 28 16 66 17 87 0 20 3 34 8 31 9 -5 13 127 8 275 l-1 42 -1515
0 -1514 0 -12 -42z"/>
</g>
</svg>
