<?xml version="1.0" encoding="utf-8"?>
<!-- Generator: Adobe Illustrator 24.3.0, SVG Export Plug-In . SVG Version: 6.00 Build 0)  -->
<svg version="1.1" id="Layer_1" xmlns="http://www.w3.org/2000/svg" xmlns:xlink="http://www.w3.org/1999/xlink" x="0px" y="0px"
	 viewBox="0 0 36 36" style="enable-background:new 0 0 36 36;" xml:space="preserve">
<style type="text/css">
	.st0{fill-rule:evenodd;clip-rule:evenodd;fill:#FFFFFF;}
</style>
<g>
	<path class="st0" d="M18,0c-4.9,0-5.5,0-7.4,0.1C8.7,0.2,7.4,0.5,6.2,0.9C5,1.4,3.9,2.1,3,3C2.1,3.9,1.4,5,0.9,6.2
		c-0.4,1.1-0.8,2.5-0.8,4.4C0,12.5,0,13.1,0,18s0,5.5,0.1,7.4c0.1,1.9,0.4,3.2,0.8,4.4C1.4,31,2.1,32.1,3,33c1,1,2,1.6,3.2,2.1
		c1.1,0.4,2.5,0.8,4.4,0.8C12.5,36,13.1,36,18,36s5.5,0,7.4-0.1c1.9-0.1,3.2-0.4,4.4-0.8c1.2-0.5,2.3-1.2,3.2-2.1c1-1,1.6-2,2.1-3.2
		c0.4-1.1,0.8-2.5,0.8-4.4C36,23.5,36,22.9,36,18s0-5.5-0.1-7.4c-0.1-1.9-0.4-3.2-0.8-4.4C34.6,5,33.9,3.9,33,3
		c-0.9-0.9-2-1.6-3.2-2.1c-1.1-0.4-2.5-0.8-4.4-0.8C23.5,0,22.9,0,18,0z M18,3.2c4.8,0,5.4,0,7.3,0.1C27,3.4,28,3.7,28.6,4
		c0.8,0.3,1.4,0.7,2.1,1.3c0.6,0.6,1,1.2,1.3,2.1c0.2,0.6,0.5,1.6,0.6,3.3c0.1,1.9,0.1,2.5,0.1,7.3s0,5.4-0.1,7.3
		C32.6,27,32.3,28,32,28.6c-0.3,0.8-0.7,1.5-1.3,2.1c-0.6,0.6-1.2,1-2.1,1.3c-0.6,0.2-1.6,0.5-3.3,0.6c-1.9,0.1-2.5,0.1-7.3,0.1
		s-5.4,0-7.3-0.1C9,32.6,8,32.3,7.4,32c-0.8-0.3-1.5-0.7-2.1-1.3c-0.6-0.6-1.1-1.3-1.3-2.1C3.7,28,3.4,27,3.3,25.3
		c-0.1-1.9-0.1-2.5-0.1-7.3s0-5.4,0.1-7.3C3.4,9,3.7,8,4,7.4c0.3-0.8,0.7-1.4,1.3-2.1c0.6-0.6,1.2-1,2.1-1.3C8,3.7,9,3.4,10.7,3.3
		C12.6,3.3,13.2,3.2,18,3.2z"/>
	<path class="st0" d="M18,24c-3.3,0-6-2.7-6-6s2.7-6,6-6c0,0,0,0,0,0c3.3,0,6,2.7,6,6C24,21.3,21.3,24,18,24z M18,8.7
		c-5.1,0-9.3,4.1-9.3,9.2c0,5.1,4.1,9.3,9.2,9.3c0,0,0,0,0,0c5.1,0,9.3-4.1,9.3-9.3C27.3,12.9,23.1,8.7,18,8.7z M29.9,8.6
		c0,1.2-1,2.2-2.2,2.2s-2.2-1-2.2-2.2s1-2.2,2.2-2.2S29.9,7.4,29.9,8.6"/>
</g>
</svg>
